<mxfile host="65bd71144e">
    <diagram id="s3XKS49f7g5tn125unqJ" name="Page-1">
        <mxGraphModel dx="772" dy="315" grid="1" gridSize="10" guides="1" tooltips="1" connect="1" arrows="1" fold="1" page="1" pageScale="1" pageWidth="1200" pageHeight="600" math="0" shadow="0">
            <root>
                <mxCell id="0"/>
                <mxCell id="1" parent="0"/>
                <mxCell id="66" value="" style="fillColor=none;strokeColor=#82b366;rounded=0;connectable=0;arcSize=8;dashed=1;strokeWidth=1;dashPattern=8 8;" parent="1" vertex="1">
                    <mxGeometry x="350" y="420" width="270" height="140" as="geometry"/>
                </mxCell>
                <mxCell id="21" value="" style="fillColor=none;strokeColor=#b85450;rounded=0;connectable=0;arcSize=8;dashed=1;strokeWidth=1;dashPattern=8 8;" parent="1" vertex="1">
                    <mxGeometry x="190" y="310" width="260" height="240" as="geometry"/>
                </mxCell>
                <mxCell id="31" value="Customer Infrastructure" style="text;strokeColor=none;align=center;fillColor=none;verticalAlign=middle;rounded=0;fontColor=#B85450;" parent="1" vertex="1">
                    <mxGeometry x="190" y="290" width="260" height="20" as="geometry"/>
                </mxCell>
                <mxCell id="41" value="" style="sketch=0;outlineConnect=0;fontColor=#232F3E;gradientColor=none;fillColor=#232F3D;strokeColor=none;dashed=0;verticalLabelPosition=bottom;verticalAlign=top;align=center;html=1;fontSize=12;fontStyle=0;aspect=fixed;pointerEvents=1;shape=mxgraph.aws4.user;connectable=0;" parent="1" vertex="1">
                    <mxGeometry x="80" y="440" width="40" height="40" as="geometry"/>
                </mxCell>
                <mxCell id="52" style="edgeStyle=none;html=1;exitX=0;exitY=0.75;exitDx=0;exitDy=0;endArrow=none;endFill=0;" parent="1" source="42" edge="1">
                    <mxGeometry relative="1" as="geometry">
                        <mxPoint x="201.82" y="440" as="sourcePoint"/>
                        <mxPoint x="120" y="450" as="targetPoint"/>
                    </mxGeometry>
                </mxCell>
                <mxCell id="42" value="Customer App" style="whiteSpace=wrap;html=1;fontSize=10;" parent="1" vertex="1">
                    <mxGeometry x="200" y="420" width="80" height="40" as="geometry"/>
                </mxCell>
                <mxCell id="44" value="Invoice-Collector&lt;div&gt;(Docker)&lt;/div&gt;" style="whiteSpace=wrap;html=1;fontSize=10;" parent="1" vertex="1">
                    <mxGeometry x="360" y="440" width="80" height="40" as="geometry"/>
                </mxCell>
                <mxCell id="45" value="collectors" style="whiteSpace=wrap;html=1;fontSize=10;horizontal=0;" parent="1" vertex="1">
                    <mxGeometry x="360" y="480" width="20" height="60" as="geometry"/>
                </mxCell>
                <mxCell id="47" value="core" style="whiteSpace=wrap;html=1;fontSize=10;" parent="1" vertex="1">
                    <mxGeometry x="380" y="480" width="60" height="20" as="geometry"/>
                </mxCell>
                <mxCell id="48" value="community" style="whiteSpace=wrap;html=1;fontSize=10;fillColor=#dae8fc;strokeColor=#000000;" parent="1" vertex="1">
                    <mxGeometry x="380" y="500" width="60" height="20" as="geometry"/>
                </mxCell>
                <mxCell id="49" value="premium" style="whiteSpace=wrap;html=1;fontSize=10;fillColor=#fff2cc;strokeColor=#000000;" parent="1" vertex="1">
                    <mxGeometry x="380" y="520" width="60" height="20" as="geometry"/>
                </mxCell>
                <mxCell id="50" value="Log Server" style="whiteSpace=wrap;html=1;fontSize=10;" parent="1" vertex="1">
                    <mxGeometry x="520" y="440" width="80" height="40" as="geometry"/>
                </mxCell>
                <mxCell id="51" value="Secret Manager&lt;br&gt;(Bitwarden)" style="whiteSpace=wrap;html=1;fontSize=10;" parent="1" vertex="1">
                    <mxGeometry x="360" y="320" width="80" height="40" as="geometry"/>
                </mxCell>
                <mxCell id="53" style="edgeStyle=none;html=1;exitX=0;exitY=0.75;exitDx=0;exitDy=0;endArrow=none;endFill=0;" parent="1" source="44" edge="1">
                    <mxGeometry relative="1" as="geometry">
                        <mxPoint x="210" y="460" as="sourcePoint"/>
                        <mxPoint x="120" y="470" as="targetPoint"/>
                    </mxGeometry>
                </mxCell>
                <mxCell id="54" style="edgeStyle=none;html=1;exitX=0;exitY=0.25;exitDx=0;exitDy=0;endArrow=none;endFill=0;entryX=1;entryY=0.75;entryDx=0;entryDy=0;" parent="1" source="44" target="42" edge="1">
                    <mxGeometry relative="1" as="geometry">
                        <mxPoint x="370" y="480" as="sourcePoint"/>
                        <mxPoint x="130" y="480" as="targetPoint"/>
                    </mxGeometry>
                </mxCell>
                <mxCell id="55" style="edgeStyle=none;html=1;exitX=0.5;exitY=1;exitDx=0;exitDy=0;endArrow=none;endFill=0;entryX=0.5;entryY=0;entryDx=0;entryDy=0;" parent="1" source="51" target="44" edge="1">
                    <mxGeometry relative="1" as="geometry">
                        <mxPoint x="370" y="460" as="sourcePoint"/>
                        <mxPoint x="290" y="460" as="targetPoint"/>
                    </mxGeometry>
                </mxCell>
                <mxCell id="56" style="edgeStyle=none;html=1;exitX=0;exitY=0.5;exitDx=0;exitDy=0;endArrow=none;endFill=0;entryX=1;entryY=0.5;entryDx=0;entryDy=0;" parent="1" source="50" target="44" edge="1">
                    <mxGeometry relative="1" as="geometry">
                        <mxPoint x="410" y="370" as="sourcePoint"/>
                        <mxPoint x="410" y="450" as="targetPoint"/>
                    </mxGeometry>
                </mxCell>
                <mxCell id="57" value="" style="fillColor=none;strokeColor=#6c8ebf;rounded=0;connectable=0;arcSize=8;dashed=1;strokeWidth=1;dashPattern=8 8;" parent="1" vertex="1">
                    <mxGeometry x="510" y="430" width="100" height="60" as="geometry"/>
                </mxCell>
                <mxCell id="58" value="Developed by Invoice-Collector" style="text;strokeColor=none;align=center;fillColor=none;verticalAlign=middle;rounded=0;fontColor=#82B366;" parent="1" vertex="1">
                    <mxGeometry x="450" y="400" width="170" height="20" as="geometry"/>
                </mxCell>
                <mxCell id="59" value="User" style="text;strokeColor=none;align=center;fillColor=none;verticalAlign=middle;rounded=0;fontColor=#000000;" parent="1" vertex="1">
                    <mxGeometry x="80" y="480" width="40" height="20" as="geometry"/>
                </mxCell>
                <mxCell id="60" value="1." style="text;strokeColor=none;align=center;fillColor=none;verticalAlign=middle;rounded=0;fontColor=#000000;" parent="1" vertex="1">
                    <mxGeometry x="130" y="430" width="40" height="20" as="geometry"/>
                </mxCell>
                <mxCell id="61" value="2. 6." style="text;strokeColor=none;align=center;fillColor=none;verticalAlign=middle;rounded=0;fontColor=#000000;" parent="1" vertex="1">
                    <mxGeometry x="290" y="430" width="60" height="20" as="geometry"/>
                </mxCell>
                <mxCell id="62" value="3." style="text;strokeColor=none;align=center;fillColor=none;verticalAlign=middle;rounded=0;fontColor=#000000;" parent="1" vertex="1">
                    <mxGeometry x="210" y="470" width="60" height="20" as="geometry"/>
                </mxCell>
                <mxCell id="63" value="4." style="text;strokeColor=none;align=center;fillColor=none;verticalAlign=middle;rounded=0;fontColor=#000000;" parent="1" vertex="1">
                    <mxGeometry x="400" y="390" width="20" height="20" as="geometry"/>
                </mxCell>
                <mxCell id="64" value="7." style="text;strokeColor=none;align=center;fillColor=none;verticalAlign=middle;rounded=0;fontColor=#000000;" parent="1" vertex="1">
                    <mxGeometry x="470" y="440" width="20" height="20" as="geometry"/>
                </mxCell>
                <mxCell id="65" value="5." style="text;strokeColor=none;align=center;fillColor=none;verticalAlign=middle;rounded=0;fontColor=#000000;" parent="1" vertex="1">
                    <mxGeometry x="430" y="440" width="10" height="10" as="geometry"/>
                </mxCell>
                <mxCell id="67" value="Invoice-Collector&#xa;Infrastructure" style="text;strokeColor=none;align=center;fillColor=none;verticalAlign=middle;rounded=0;fontColor=#6C8EBF;" parent="1" vertex="1">
                    <mxGeometry x="510" y="490" width="105" height="30" as="geometry"/>
                </mxCell>
            </root>
        </mxGraphModel>
    </diagram>
</mxfile>